<svg xmlns="http://www.w3.org/2000/svg" viewBox="0 0 163.14 163.14"><defs><style>.cls-1{fill:blue;}.cls-2{fill:#fff;}</style></defs><g id="Layer_2" data-name="Layer 2"><g id="Layer_1-2" data-name="Layer 1"><rect class="cls-1" width="163.14" height="163.14" rx="25.69"/><path class="cls-2" d="M80.48,137.75h-.63c-5.94-.08-10.57-1.4-14.17-4C57,127.37,56.4,114.88,59.53,106A73.72,73.72,0,0,1,66,93a86.88,86.88,0,0,0,4.53-8.33,63.88,63.88,0,0,0,4.07-13.42,46.29,46.29,0,0,1-11.79-2.79c-8-3.19-14-9.4-16-16.61A21.49,21.49,0,0,1,56,28.29,20.82,20.82,0,0,1,81,31.12c8.6,8.43,7.68,21.69,6.41,30.16,0,.07,13.5,0,14.78,0a67.63,67.63,0,0,0,7.11-.86c1.17-.21,2.32-.46,3.47-.75.58-.14.91-.38,1.34.08a2.27,2.27,0,0,1,.42,1.5,11.36,11.36,0,0,1-.36,2.07,6,6,0,0,0,0,2.42,3.37,3.37,0,0,0,1.3,2c.31.2.65.35,1,.56a1.29,1.29,0,0,1,.62.88c.15,1.22-5.18,1.75-6.18,1.93-2.5.43-5,.72-7.56.91a138.79,138.79,0,0,1-15.4.13L85.51,72a76.53,76.53,0,0,1-5.1,17.13,94.64,94.64,0,0,1-5.07,9.37,65.06,65.06,0,0,0-5.62,11c-1.86,5.3-1.68,12.5,2.34,15.44,1.72,1.26,4.32,1.89,7.94,1.94,4.08,0,9.8-.59,13.92-4,3.39-2.77,5-7.43,3.78-10.84a5.4,5.4,0,1,1,10.15-3.68c2.81,7.75-.1,17.16-7.09,22.88C95.63,135.54,88.63,137.75,80.48,137.75ZM66.57,36.16a9.27,9.27,0,0,0-4.86,1.32A10.79,10.79,0,0,0,57.29,49C58.37,53,62,56.5,66.85,58.45a36.08,36.08,0,0,0,9.68,2.16c1.28-8.41,1.61-17.13-3.13-21.78A9.81,9.81,0,0,0,66.57,36.16Z"/></g></g></svg>