<svg xmlns="http://www.w3.org/2000/svg" viewBox="0 0 378.73 100.26"><defs><style>.cls-1{fill:blue;}</style></defs><g id="Layer_2" data-name="Layer 2"><g id="Layer_1-2" data-name="Layer 1"><path class="cls-1" d="M139.2,55.48l.12.08c7.36,4.7,14.83,6,20.51,3.63a11.94,11.94,0,0,0,7.27-8.82,10.31,10.31,0,0,0-2.31-8.7,17.14,17.14,0,0,0-12.62-5.87h0c-5.66,0-11.38,3.05-15.41,8-4.59-3.79-9.36-7.61-16.17-7.61-8.27,0-12.91,1.4-17,5.61a20.64,20.64,0,0,0-1.32-3.19,4.06,4.06,0,0,0-5.52-1.49,4,4,0,0,0-1.48,5.49c.51,1,2.43,6.49,2.06,9.72-.06.49-.76,7.64-1.06,10.94-.49,5.72-1,11.63-3,16.46a3.88,3.88,0,0,0,2.16,5,3.8,3.8,0,0,0,1.44.28,3.89,3.89,0,0,0,3.6-2.43c2.37-5.91,3-12.68,3.48-18.67s1-11.36,2.95-14.07c3.3-4.6,5.5-5.94,13.68-5.94,4.2,0,7.49,2.73,11.63,6.17l.57.47a54.6,54.6,0,0,0-3.28,12.21,38.62,38.62,0,0,0-.67,8.15,13.29,13.29,0,0,0,1.6,6.08c2.24,3.86,7,6,12.86,5.92a25.36,25.36,0,0,0,14.8-4.74,18.93,18.93,0,0,0,7.8-14.31,3.88,3.88,0,1,0-7.75-.25A11.18,11.18,0,0,1,153.44,72a17.83,17.83,0,0,1-10.29,3.21c-2.3,0-5.12-.48-6-2.06a5.66,5.66,0,0,1-.56-2.57,30.24,30.24,0,0,1,.56-6.48A51.1,51.1,0,0,1,139.2,55.48Zm13-11.93h0a9.28,9.28,0,0,1,6.59,3,2.51,2.51,0,0,1,.75,2.2A4.33,4.33,0,0,1,156.8,52c-3.22,1.38-8.21.24-13.33-3l-.63-.42C145.41,45.46,148.87,43.56,152.15,43.55Z"/><path class="cls-1" d="M373,66.84a17.4,17.4,0,0,1-8.29,8,17.93,17.93,0,0,1-5,1.56l.12-12.88,0-3.28c0-1.07,0-2.22-.07-3.61-.23-2.11-.27-4.37-.5-6.65a59.58,59.58,0,0,0-1-7,20.65,20.65,0,0,0-1.24-4,9.41,9.41,0,0,0-.7-1.29l-.23-.37-.06-.09a3.23,3.23,0,0,1-.21-.27,5.15,5.15,0,0,0-1.47-1.18,6.76,6.76,0,0,0-.72-.32,4,4,0,0,0-.57-.14,5.5,5.5,0,0,0-.9-.11,3.68,3.68,0,0,0-.61,0l-.44,0a9.18,9.18,0,0,0-1.75.51l-1,.41c-.15.08-.33.14-.47.2a15.45,15.45,0,0,0-3.47-.55l-.47-.05-.9-.14c-.62-.09-1.26-.15-1.89-.22a27.42,27.42,0,0,0-4-.06,19,19,0,0,0-8.26,2.33,15.63,15.63,0,0,0-6.25,6.66A18.76,18.76,0,0,0,321,52.61a23.16,23.16,0,0,0,1.58,8,20.54,20.54,0,0,0,4.46,7A15.58,15.58,0,0,0,334.85,72a14.61,14.61,0,0,0,4.6.27c.84-.08,1.26-.17,1.89-.27l1.74-.3a35.14,35.14,0,0,0,7.22-2.08l.69-.31,0,5.42a6.36,6.36,0,0,0-.76-.14l-.9-.11c-.6-.1-1.21-.14-1.81-.19a23,23,0,0,0-7.76.63A13,13,0,0,0,332.39,80a13.25,13.25,0,0,0-2.24,8.83,9.26,9.26,0,0,0,.69,2.81c.24.5.35.69.54,1s.35.63.55.93a14.61,14.61,0,0,0,3,3.37,14.82,14.82,0,0,0,8.34,3.25,17.68,17.68,0,0,0,2.35-.08,20.28,20.28,0,0,0,2.13-.38,13.92,13.92,0,0,0,10-8.64,23.59,23.59,0,0,0,1.65-7.82h0l1.33-.18A18,18,0,0,0,368,80.28a13.39,13.39,0,0,0,4.92-6.06A10.12,10.12,0,0,0,373,66.84ZM345.19,44.93h0Zm4.45,14.47a8,8,0,0,1-1.26,1.7,3.73,3.73,0,0,1-1.39.84,27.46,27.46,0,0,1-5.42,1.36l-1.5.22c-.46.06-1.11.15-1.37.15a6,6,0,0,1-1.91-.15c-2.41-.54-4.72-3-5.85-6.12a12.08,12.08,0,0,1,.06-9.15,6.48,6.48,0,0,1,2.6-2.76,9.82,9.82,0,0,1,4.29-1.12,19,19,0,0,1,2.6.05,13.37,13.37,0,0,1,1.36.18l.72.11c.45.06.81.11,1.16.14a15.35,15.35,0,0,1,1.59.17l0,0,.09,0h-.06a5.23,5.23,0,0,0,2.3.7,6,6,0,0,0,1.15,0c.35-.07.62-.13.84-.19.33,1.65.56,3.47.74,5.3s.25,3.72.47,5.69A12.57,12.57,0,0,1,349.64,59.4Zm1.2,23.54a15.09,15.09,0,0,1-.92,5,5.85,5.85,0,0,1-2.33,3,6.18,6.18,0,0,1-1.83.76,7.93,7.93,0,0,1-1.1.22l-.92.08A6.79,6.79,0,0,1,340,90.7a6.21,6.21,0,0,1-1.4-1.48,4,4,0,0,1-.3-.46l-.24-.41A2.49,2.49,0,0,1,338,88a5.56,5.56,0,0,1,.74-3.67,5.5,5.5,0,0,1,3.19-2.22,15.28,15.28,0,0,1,5.25-.56c.49,0,1,0,1.45.1l.74.06a3.85,3.85,0,0,1,.47.08c.32.06.66.16,1,.25Zm8.64-2.11v0Z"/><path class="cls-1" d="M356,45.3H356l0,0Z"/><polygon class="cls-1" points="378.73 81.73 378.71 81.86 378.71 81.76 378.73 81.73"/><path class="cls-1" d="M314.85,67.53c-1.19,4-3,10.13-2.34,11.74a4.13,4.13,0,1,1-7.66,3.07c-1.72-4.29,0-10.25,2.09-17.15,1.87-6.27,4.18-14.08,2.64-18.31-.39-1.09-1.28-2.59-4.47-3.07C299.93,43,293.47,45.66,292.3,47a14.49,14.49,0,0,0-1.24,3.51c-.05.24-4.1,24-14.58,33.35a4.14,4.14,0,0,1-5.5-6.18c6.82-6.06,10.92-22.78,11.82-27.95a4.49,4.49,0,0,1-.08-.83,24.53,24.53,0,0,0-.35-4.57A6.18,6.18,0,0,0,281,41.48a4.12,4.12,0,1,1,6-5.61,12.18,12.18,0,0,1,2.18,3.25,29.08,29.08,0,0,1,14.68-3.7c6.6.23,11.51,3.39,13.42,8.64C319.82,50.84,317.18,59.71,314.85,67.53Z"/><path class="cls-1" d="M258.11,85.17a3.89,3.89,0,0,1-3.23-6.07c7.75-11.5,9.65-19,12.88-35.25a18.56,18.56,0,0,0-4.37,2.4,3.9,3.9,0,1,1-5.24-5.77c2.09-1.89,5.24-3.27,8-4.41.36-.15.66-.27.84-.36a6.11,6.11,0,0,1,6.46.61,7.05,7.05,0,0,1,2.31,7c-3.6,18.29-5.57,26.93-14.46,40.12A3.89,3.89,0,0,1,258.11,85.17Z"/><path class="cls-1" d="M49.8,6.9a4.3,4.3,0,1,1,6.85-5.2C58.41,4,61,10.05,62.9,18.06c-3,.93-5.84,1.89-8.21,2.76C53.14,13.69,51,8.45,49.8,6.9Z"/><path class="cls-1" d="M85.93,67c-1.55,4.44-3.31,9.47-5.06,15.3a3.91,3.91,0,0,1-3.71,2.76A3.75,3.75,0,0,1,76,84.92a3.87,3.87,0,0,1-2.59-4.83c1.8-6,3.59-11.1,5.17-15.62,3.06-8.77,5.26-15.11,4.5-19.33a3,3,0,0,0-.87-.79l-.17-.11c-1.26-.92-4.72.26-7,1.06l-.6.2A28.25,28.25,0,0,0,71,47.17,22.31,22.31,0,0,1,63.9,50,92.38,92.38,0,0,1,53,83a3.86,3.86,0,0,1-3.4,2,3.78,3.78,0,0,1-1.86-.49,3.86,3.86,0,0,1-1.54-5.26L46.91,78c1.43-2.7,2.66-5.33,3.71-7.87,5.05-12.25,6.15-22.87,6.48-32.62,0-.35,0-.69,0-1a2.92,2.92,0,0,0,.34-.13c1.91-.71,4.46-1.66,7.41-2.62,0,1.32,0,2.65,0,4s-.09,2.61-.18,4c.82-.37,1.69-.83,2.59-1.33A30,30,0,0,1,72,38.15l.57-.2c4-1.38,9.58-3.27,14.11,0a9.33,9.33,0,0,1,4.12,5.8C91.87,50,89.38,57.14,85.93,67Z"/><path class="cls-1" d="M25.58,85.09h-.47c-4.42-.07-7.88-1-10.55-3-6.48-4.73-6.92-14-4.59-20.67a54.42,54.42,0,0,1,4.85-9.65,65.84,65.84,0,0,0,3.38-6.21,48.14,48.14,0,0,0,3-10,33.93,33.93,0,0,1-8.78-2.08C6.46,31.1,2,26.48.54,21.11A16,16,0,0,1,7.37,3.54,15.51,15.51,0,0,1,25.94,5.65c6.4,6.28,5.72,16.16,4.78,22.47,7.07.29,13.52.24,19.68-1.43.37-.1,1.55-.55,2.69-1,7.94-3,26.53-9.88,41.59-7.44.81.13,2.7.63,7.89,2,5,1.34,14.34,3.86,16,4,6.6.2,11.59-1.92,16.4-3.95s9.6-4,15.06-3c22.37,4.28,28.54,1.42,31.86-.12a4,4,0,0,1,3.38,7.31c-4.14,1.91-11.84,5.48-36.75.72-3.07-.59-6.31.78-10.42,2.51-5.08,2.14-11.4,4.8-19.82,4.57-1.82,0-6.73-1.3-17.79-4.27-3-.82-6.47-1.74-7.11-1.86-12.93-2.09-30.12,4.31-37.47,7-1.6.6-2.67,1-3.39,1.19-7.51,2-15.26,2-23.18,1.66a57.26,57.26,0,0,1-3.8,12.77,71.08,71.08,0,0,1-3.78,7,47.34,47.34,0,0,0-4.19,8.23c-1.39,3.94-1.25,9.32,1.74,11.5,1.29.94,3.22,1.41,5.92,1.45,3,0,7.3-.44,10.38-3C38.12,72,39.33,68.55,38.41,66A4,4,0,1,1,46,63.27c2.1,5.77-.07,12.78-5.28,17C36.87,83.44,31.65,85.09,25.58,85.09ZM15.22,9.4a6.82,6.82,0,0,0-3.62,1A8,8,0,0,0,8.3,19c.81,2.95,3.47,5.57,7.12,7a27.13,27.13,0,0,0,7.22,1.61c.95-6.27,1.19-12.77-2.34-16.23A7.3,7.3,0,0,0,15.22,9.4Z"/><path class="cls-1" d="M247.35,12.46a4,4,0,0,0-7,3.74c2.3,4.29,4.74,17,5.26,27.75a26.41,26.41,0,0,0-14.41-1.3,28.78,28.78,0,0,0-16.3,9.61c-4.48,5.26-6.47,11.45-5.45,17s5,10.17,11.25,12.78a31,31,0,0,0,11.89,2.25,34.21,34.21,0,0,0,6.15-.54,29.35,29.35,0,0,0,4.12-1.1,3.94,3.94,0,0,0,3.6,2.33,3.61,3.61,0,0,0,.86-.1,4,4,0,0,0,3-4.75c-.07-.36-.14-.78-.19-1.24L250,75.68V75.6c-.12-5.23,1.39-12.66,2.6-18.7l.26-1.29a32.78,32.78,0,0,0,.59-4.43l.14-2C253.82,36.78,250.9,19.12,247.35,12.46Zm-5.28,61.86a19.34,19.34,0,0,1-4.81,1.55,24.65,24.65,0,0,1-13.53-1.21c-2.59-1.09-5.82-3.16-6.49-6.89-.59-3.14.75-6.92,3.66-10.33a21.06,21.06,0,0,1,11.69-6.95,19.36,19.36,0,0,1,3.54-.33,17,17,0,0,1,9.18,2.56c-.06.46-.13.89-.21,1.28l-.27,1.32C243.57,61.54,242.17,68.49,242.07,74.32Z"/><circle class="cls-1" cx="266.31" cy="25.59" r="4.51"/><path class="cls-1" d="M206.26,60.17c.2-.62.4-1.26.61-1.88,1-3.16,2.19-6.73,1.76-10.57a14.7,14.7,0,0,0-8.29-11.37,16.53,16.53,0,0,0-8.11-1.43A27.73,27.73,0,0,0,175,41.58a3.43,3.43,0,1,0,4.47,5.2,21.21,21.21,0,0,1,12.92-5,10.73,10.73,0,0,1,4.79.68,7.86,7.86,0,0,1,4.59,6,15.42,15.42,0,0,1-1,6.16c-4.53-2-11-3.45-16.19-2.64-5.82.91-15.94,5.3-17,16.09C167,74,169.05,76.71,171,79.34c2.67,3.58,6,5.47,9.78,5.64.43,0,.84,0,1.26,0,8.42,0,14.25-3.75,17.58-6a16.4,16.4,0,0,0,2.56,4.69A3.46,3.46,0,0,0,204.87,85a3.4,3.4,0,0,0,2.14-.76,3.43,3.43,0,0,0,.53-4.83C204.45,75.55,204.39,66.35,206.26,60.17ZM196.13,73.09c-3.14,2.13-7.89,5.35-15,5-1.73-.08-3.15-1-4.57-2.88-1.71-2.28-2.41-3.22-2.08-6.47.84-8.28,10.83-9.93,11.25-10,4.05-.64,9.76.76,13.24,2.52a41.13,41.13,0,0,0-.73,10.43C197.56,72.12,196.89,72.57,196.13,73.09Z"/></g></g></svg>