<svg xmlns="http://www.w3.org/2000/svg" viewBox="0 0 113.81 180.48"><defs><style>.cls-1{fill:#fff;}</style></defs><g id="Layer_2" data-name="Layer 2"><g id="Layer_1-2" data-name="Layer 1"><path class="cls-1" d="M55.15,180.48h-1c-9.55-.13-17-2.24-22.77-6.46-14-10.2-14.92-30.25-9.89-44.56,2.69-7.63,6.64-14.33,10.46-20.81a138.52,138.52,0,0,0,7.28-13.39,102.35,102.35,0,0,0,6.54-21.56,74.42,74.42,0,0,1-18.93-4.47C13.93,64.08,4.33,54.11,1.16,42.53-2.75,28.25,3.45,12.32,15.9,4.65S45.5-1,55.93,9.2C69.73,22.74,68.26,44,66.22,57.64c0,.12,21.69.09,23.75-.06a106.89,106.89,0,0,0,11.42-1.39Q104.2,55.7,107,55c.94-.23,1.45-.61,2.15.13a3.64,3.64,0,0,1,.68,2.4,20,20,0,0,1-.57,3.33,9.27,9.27,0,0,0,0,3.89,5.31,5.31,0,0,0,2.09,3.2c.48.34,1,.57,1.52.91a2.1,2.1,0,0,1,1,1.41c.24,2-8.32,2.82-9.93,3.1-4,.7-8.07,1.17-12.13,1.47A222.12,222.12,0,0,1,67,75l-3.76-.16c-1.8,9.26-4.14,18.57-8.18,27.52a155.77,155.77,0,0,1-8.15,15.06c-3.56,6-6.92,11.72-9,17.74-3,8.51-2.7,20.09,3.75,24.8,2.77,2,6.94,3,12.76,3.12,6.55.08,15.74-.94,22.37-6.36,5.44-4.45,8-11.94,6.06-17.41a8.68,8.68,0,1,1,16.31-5.92c4.52,12.46-.16,27.57-11.38,36.76C79.49,176.93,68.24,180.48,55.15,180.48ZM32.81,17.3A14.88,14.88,0,0,0,25,19.42C19.16,23,16,31.16,17.9,38c1.74,6.35,7.48,12,15.36,15.14a57.24,57.24,0,0,0,15.55,3.47c2-13.5,2.58-27.51-5-35A15.79,15.79,0,0,0,32.81,17.3Z"/></g></g></svg>